<?xml version="1.0" standalone="no"?>
<!DOCTYPE svg PUBLIC "-//W3C//DTD SVG 20010904//EN"
 "http://www.w3.org/TR/2001/REC-SVG-20010904/DTD/svg10.dtd">
<svg version="1.0" xmlns="http://www.w3.org/2000/svg"
 width="864.000000pt" height="798.000000pt" viewBox="0 0 864.000000 798.000000"
 preserveAspectRatio="xMidYMid meet">

<g transform="translate(0.000000,798.000000) scale(0.100000,-0.100000)"
fill="#000000" stroke="none">
<path d="M4860 7783 c-183 -27 -445 -145 -647 -290 -230 -165 -630 -560 -718
-710 -107 -183 -142 -312 -185 -678 -16 -143 -39 -313 -50 -378 -16 -97 -20
-165 -20 -374 l0 -255 -27 5 c-16 4 -57 12 -93 18 -36 7 -66 13 -67 14 -1 0 6
41 17 90 54 260 65 377 64 675 0 308 -12 459 -50 670 -63 347 -145 538 -318
740 -172 202 -266 242 -606 257 -157 6 -196 0 -300 -52 -50 -25 -208 -137
-282 -198 -104 -87 -252 -293 -355 -496 -93 -183 -202 -491 -214 -606 -13
-121 -7 -149 50 -221 36 -45 66 -69 117 -96 91 -48 193 -78 261 -78 72 0 176
54 211 108 13 21 44 60 69 87 l46 50 -7 -35 c-32 -162 -30 -385 4 -590 19
-111 60 -282 80 -335 17 -44 12 -51 -53 -80 -135 -60 -411 -239 -501 -324
-137 -131 -254 -374 -321 -671 -34 -149 -43 -242 -52 -520 -11 -336 -9 -559 6
-658 7 -46 10 -86 7 -89 -3 -3 -32 8 -65 26 -162 86 -290 107 -383 62 -70 -34
-98 -64 -98 -104 0 -72 68 -89 131 -33 41 38 88 51 149 43 36 -5 216 -82 267
-114 26 -17 53 -91 53 -145 0 -55 -20 -129 -37 -135 -8 -3 -47 0 -86 7 -91 15
-186 -3 -297 -56 -84 -40 -120 -69 -161 -133 -34 -53 -36 -84 -9 -111 26 -26
45 -17 120 60 30 31 71 66 90 78 43 25 195 62 257 62 50 0 48 8 24 -85 -15
-56 -6 -97 45 -200 29 -61 65 -114 108 -160 53 -59 66 -79 75 -125 59 -280
245 -643 392 -762 54 -44 257 -190 311 -224 l39 -25 -35 -39 c-52 -58 -67
-166 -30 -217 57 -78 254 -134 401 -113 85 11 153 28 224 56 l46 17 34 -26
c19 -14 69 -42 112 -63 143 -68 327 -68 541 0 l71 22 65 -22 c57 -19 101 -23
365 -34 165 -6 404 -15 530 -20 156 -7 286 -6 405 1 l175 11 60 -35 c104 -61
159 -72 335 -70 111 1 185 8 260 23 58 11 143 23 189 27 65 5 89 11 104 26 20
20 22 20 81 3 115 -32 219 -48 288 -42 95 7 262 48 506 124 192 59 215 68 224
91 5 15 8 95 6 183 l-3 157 29 5 c35 7 371 176 441 221 90 59 205 182 292 312
66 98 174 311 208 412 18 53 43 124 55 157 l21 62 59 -5 c149 -14 374 134 447
294 23 51 25 64 20 142 -4 53 -16 116 -33 166 -51 151 -93 215 -176 261 -47
25 -63 29 -135 29 l-81 0 -12 100 c-6 55 -18 136 -26 180 -18 91 -109 353
-161 465 -19 41 -68 150 -108 242 -40 93 -93 201 -118 240 -24 40 -80 138
-124 218 -122 224 -198 313 -497 585 -146 133 -183 157 -416 276 -136 69 -410
142 -600 159 -626 58 -757 60 -1146 20 -56 -5 -127 -19 -159 -30 -62 -21 -95
-25 -95 -11 0 19 53 126 89 180 83 123 124 205 211 421 122 301 369 946 438
1145 l56 160 4 147 c5 183 -11 260 -72 352 -35 52 -52 66 -115 99 -66 33 -81
37 -145 36 -39 -1 -82 -3 -96 -6z m224 -136 c36 -46 46 -81 57 -180 18 -173
-10 -302 -136 -627 -21 -52 -86 -223 -145 -380 -127 -333 -275 -702 -315 -780
-71 -142 -247 -375 -372 -495 -40 -39 -73 -75 -73 -80 0 -5 -24 -33 -52 -63
l-53 -53 35 12 c19 6 49 17 67 25 37 17 43 17 43 4 0 -5 -9 -10 -20 -10 -11 0
-20 -3 -20 -7 0 -19 42 -73 76 -99 35 -27 44 -29 133 -30 53 0 105 -5 116 -11
49 -26 162 -53 221 -53 l64 0 0 -31 c0 -53 22 -109 53 -135 23 -20 40 -24 88
-24 50 0 64 4 84 25 14 13 25 29 25 34 0 6 24 10 58 8 69 -2 92 12 92 57 0 37
33 106 56 119 10 6 20 5 27 -2 17 -17 59 -13 82 9 21 20 194 70 240 70 38 0
69 32 61 63 -9 36 -54 47 -198 47 l-117 0 -16 29 c-8 16 -31 39 -51 51 -33 21
-44 22 -150 17 -63 -3 -116 -2 -119 3 -8 13 237 23 365 16 63 -4 180 -11 260
-16 80 -5 175 -16 211 -24 37 -9 82 -14 100 -11 l34 5 -37 -16 c-50 -22 -52
-59 -4 -111 18 -21 38 -48 44 -60 8 -14 28 -25 61 -32 27 -6 84 -24 127 -42
155 -62 247 -76 274 -44 18 21 27 19 73 -17 34 -27 50 -33 90 -33 40 0 52 5
68 24 14 17 18 33 14 50 -6 24 -6 24 22 -5 16 -16 70 -62 120 -102 107 -87
332 -320 419 -436 34 -45 99 -151 143 -235 45 -84 97 -178 116 -207 51 -79 79
-139 110 -234 15 -47 56 -148 91 -225 109 -245 122 -324 150 -860 5 -115 -12
-313 -47 -534 -9 -60 -133 -378 -196 -506 -36 -73 -244 -343 -300 -390 -50
-42 -356 -209 -502 -275 -24 -10 -49 -114 -56 -232 l-7 -113 -162 -58 c-88
-31 -208 -69 -266 -83 -58 -13 -134 -32 -169 -41 -81 -20 -188 -14 -299 17
-84 24 -84 24 -78 53 13 62 140 223 260 327 58 51 86 82 86 96 0 40 -30 36
-109 -13 -260 -160 -404 -333 -368 -439 7 -20 3 -22 -60 -28 -38 -4 -93 -13
-123 -21 -70 -18 -238 -35 -345 -35 -91 0 -145 14 -145 37 0 33 75 127 163
203 51 43 136 127 190 185 76 83 97 111 97 134 0 21 -6 32 -20 36 -33 10 -62
-4 -120 -60 -30 -28 -100 -88 -155 -132 -154 -123 -207 -175 -245 -240 l-35
-60 -175 -9 c-198 -10 -478 -8 -715 6 -88 6 -236 10 -330 10 l-170 0 34 22
c31 20 33 24 27 61 -4 22 -9 44 -13 50 -9 15 -88 0 -140 -26 -80 -40 -233 -86
-340 -102 -141 -21 -292 -20 -338 2 -44 21 -42 29 40 169 33 55 -2 120 -59
109 -30 -6 -61 -34 -99 -89 -22 -32 -157 -98 -257 -126 -108 -30 -227 -37
-268 -16 -89 46 -53 142 66 177 23 7 42 16 42 21 0 5 11 14 25 20 29 13 43 52
25 73 -8 10 -31 14 -78 13 -47 -1 -80 5 -112 19 -57 25 -303 200 -364 259 -69
65 -193 260 -244 383 -46 110 -86 235 -74 229 4 -2 34 -17 68 -35 85 -44 252
-109 359 -140 68 -19 116 -25 195 -27 97 -1 401 21 615 44 232 26 223 26 326
-13 52 -19 134 -52 184 -72 207 -83 490 -125 661 -96 122 21 275 72 394 131
106 53 124 66 206 153 92 96 218 274 312 442 75 134 71 130 164 156 119 33
264 33 331 0 26 -13 62 -40 78 -61 17 -21 54 -50 81 -64 47 -25 52 -25 74 -11
88 57 -93 224 -293 271 -50 12 -96 15 -176 11 -99 -5 -109 -4 -104 11 3 9 26
67 51 129 25 61 46 116 46 121 0 13 269 110 345 124 82 15 158 -1 211 -43 20
-16 42 -29 49 -29 7 0 18 -7 25 -16 20 -23 64 -14 68 15 7 45 -76 108 -206
158 -110 42 -248 32 -388 -27 -26 -11 -48 -19 -49 -18 -2 2 8 44 20 93 44 175
68 384 62 555 -5 181 -24 264 -91 406 -59 124 -189 356 -242 430 -62 88 -167
181 -312 277 -149 98 -207 126 -225 108 -19 -19 1 -39 144 -143 218 -158 262
-208 413 -479 157 -282 180 -360 181 -599 0 -184 -13 -291 -61 -505 -39 -175
-37 -170 -102 -194 -75 -27 -122 -57 -122 -76 0 -9 11 -27 26 -41 21 -22 31
-25 60 -19 34 6 35 5 29 -17 -4 -13 -35 -85 -68 -161 -51 -116 -66 -141 -92
-154 -46 -23 -65 -44 -65 -69 0 -13 7 -27 17 -32 14 -8 12 -17 -21 -76 -60
-107 -167 -256 -221 -309 -149 -145 -273 -228 -413 -277 -196 -69 -348 -86
-508 -55 -147 28 -179 37 -279 80 -262 113 -286 118 -483 99 -630 -59 -626
-58 -735 -46 -137 14 -391 100 -495 166 -45 29 -92 72 -92 84 0 5 -25 39 -54
76 -63 76 -115 176 -123 234 -6 45 22 132 42 132 7 0 18 -7 25 -15 7 -8 18
-15 24 -15 6 0 22 -9 36 -20 31 -25 37 -25 50 0 16 30 -4 58 -56 80 l-44 19 3
106 c1 78 5 105 15 105 9 0 12 12 10 38 -2 28 -7 37 -20 36 -10 -1 -18 2 -18
7 0 16 39 10 48 -8 13 -23 42 -9 42 20 0 22 -46 67 -68 67 -18 0 4 100 28 125
37 40 145 61 168 33 5 -7 10 -42 10 -78 0 -115 60 -322 97 -336 12 -5 15 -18
13 -52 -3 -46 -2 -47 35 -59 30 -10 49 -10 100 1 118 25 196 82 276 202 76
114 96 188 95 359 0 128 -3 146 -28 215 -54 144 -95 216 -156 274 -56 54 -61
56 -112 56 -33 0 -75 -10 -113 -25 -33 -14 -69 -25 -80 -25 -37 0 -86 -40
-127 -104 -39 -61 -42 -64 -89 -69 -66 -8 -97 -32 -143 -111 -22 -37 -43 -69
-48 -72 -12 -8 -4 475 11 676 22 285 81 513 193 740 53 107 72 135 137 200 85
85 307 233 473 316 92 46 98 47 116 31 25 -23 59 -21 72 3 9 16 5 34 -20 89
-64 147 -118 413 -127 626 -7 161 6 288 41 428 33 128 142 345 163 324 3 -4
-4 -48 -16 -99 -34 -151 -44 -259 -38 -448 7 -230 46 -435 115 -598 32 -78
147 -255 188 -293 46 -42 135 -99 154 -99 30 0 67 38 89 92 11 29 39 109 60
178 149 471 148 705 -5 1393 -42 190 -154 530 -185 563 -37 40 -72 32 -106
-23 -76 -123 -99 -163 -135 -233 -22 -41 -49 -86 -62 -100 -12 -14 -42 -59
-65 -100 -45 -81 -100 -147 -282 -341 -64 -68 -159 -174 -212 -234 -114 -134
-143 -150 -246 -143 -85 6 -162 46 -204 105 l-29 40 12 79 c14 90 26 129 105
344 96 259 211 461 368 648 93 110 282 253 381 288 78 28 413 17 522 -17 36
-11 149 -124 215 -215 176 -239 279 -734 279 -1334 0 -130 -28 -366 -65 -560
-14 -69 -25 -142 -25 -162 0 -36 0 -37 -56 -48 -70 -15 -148 -59 -152 -87 -4
-26 41 -63 78 -63 15 0 52 9 84 20 31 10 103 27 159 36 110 18 112 18 305 -38
40 -11 45 -11 58 6 11 16 11 23 -1 47 -12 22 -15 78 -15 270 0 222 3 262 35
488 19 135 44 323 55 417 23 189 44 277 92 386 63 144 108 205 288 394 251
264 466 438 681 553 198 105 333 150 461 150 75 1 77 0 102 -32z m-2631 -919
c20 -84 46 -207 57 -273 113 -690 110 -808 -32 -1258 l-40 -129 -30 29 c-147
140 -250 580 -219 940 12 150 52 344 100 492 16 52 28 98 25 103 -7 11 84 248
95 248 4 0 24 -69 44 -152z m-883 -3670 c25 -42 25 -59 -1 -92 -41 -52 -139
-18 -139 49 0 38 42 75 85 75 29 0 39 -6 55 -32z m6468 -353 c93 -28 144 -91
191 -234 11 -35 24 -92 27 -126 6 -54 3 -70 -18 -117 -63 -137 -256 -272 -348
-243 -16 5 -20 12 -16 28 35 126 86 507 86 639 0 77 -1 76 78 53z"/>
<path d="M4483 7154 c-18 -39 -64 -96 -152 -187 -198 -206 -285 -316 -442
-553 -156 -238 -234 -428 -303 -741 -61 -278 -88 -478 -84 -640 3 -135 4 -143
28 -168 22 -24 79 -55 100 -55 4 0 35 24 68 53 33 28 94 79 137 111 121 94
363 373 490 566 225 344 312 558 375 926 24 138 27 385 6 479 -28 125 -86 235
-125 235 -10 0 -24 7 -31 15 -22 27 -40 16 -67 -41z m93 -210 c4 -26 4 -112 1
-193 -7 -203 -62 -467 -140 -671 -52 -138 -179 -366 -296 -530 -110 -156 -315
-386 -428 -481 l-83 -69 0 57 c0 79 34 303 77 508 39 190 102 392 161 518 67
143 227 387 379 577 73 90 300 330 314 330 4 0 11 -21 15 -46z"/>
<path d="M1723 3649 c-31 -9 -59 -41 -49 -57 2 -4 53 -7 113 -7 108 1 108 1
108 25 0 20 -8 27 -40 36 -48 15 -88 16 -132 3z"/>
<path d="M3510 3610 c-28 -28 -21 -46 16 -42 16 2 56 5 89 5 57 2 60 3 60 27
0 24 -3 25 -72 28 -62 2 -75 0 -93 -18z"/>
<path d="M3690 3291 c-25 -17 -53 -31 -63 -31 -33 0 -109 -82 -140 -150 -16
-36 -51 -92 -77 -125 -78 -98 -95 -138 -95 -225 0 -103 17 -131 95 -162 33
-12 60 -26 60 -29 0 -4 18 -33 40 -65 22 -33 40 -64 40 -70 0 -6 10 -23 21
-38 12 -15 30 -51 41 -79 26 -68 60 -102 125 -127 97 -36 162 -21 283 66 60
43 80 73 80 121 0 54 27 202 51 280 15 47 30 75 51 93 17 14 48 41 69 61 l39
37 0 87 0 87 -38 38 c-32 32 -47 39 -96 45 -47 6 -63 13 -85 37 -40 46 -150
131 -196 152 -22 10 -67 20 -100 23 -54 4 -64 1 -105 -26z m90 -273 c45 -49
13 -128 -53 -128 -57 0 -90 57 -63 109 25 47 81 56 116 19z"/>
<path d="M2197 2693 c-11 -11 -8 -58 6 -74 6 -9 24 -23 39 -32 40 -25 66 -83
60 -135 -2 -25 1 -48 8 -57 13 -15 77 -20 95 -7 6 4 25 37 43 74 18 37 53 87
77 112 49 49 55 76 25 106 -35 35 -77 24 -142 -38 l-38 -36 -32 30 c-61 56
-119 80 -141 57z"/>
<path d="M2434 2029 c-82 -35 -79 -34 -138 -9 -57 26 -86 15 -86 -30 0 -25 7
-33 50 -55 66 -33 126 -32 209 4 72 31 87 46 78 83 -10 37 -37 39 -113 7z"/>
</g>
</svg>
