<?xml version="1.0" standalone="no"?>
<!DOCTYPE svg PUBLIC "-//W3C//DTD SVG 20010904//EN"
 "http://www.w3.org/TR/2001/REC-SVG-20010904/DTD/svg10.dtd">
<svg version="1.0" xmlns="http://www.w3.org/2000/svg"
 width="849.000000pt" height="799.000000pt" viewBox="0 0 849.000000 799.000000"
 preserveAspectRatio="xMidYMid meet">

<g transform="translate(0.000000,799.000000) scale(0.100000,-0.100000)"
fill="#000000" stroke="none">
<path d="M4640 7833 c-183 -27 -445 -145 -647 -290 -230 -165 -630 -560 -718
-710 -107 -183 -142 -312 -185 -678 -16 -143 -39 -313 -50 -378 -16 -97 -20
-165 -20 -373 0 -197 -3 -254 -12 -253 -7 0 -49 8 -93 18 -91 20 -86 10 -60
131 48 224 60 359 59 650 0 308 -12 459 -50 670 -63 347 -145 538 -318 740
-172 202 -266 242 -606 257 -157 6 -196 0 -300 -52 -50 -25 -208 -137 -282
-198 -104 -87 -252 -293 -355 -496 -93 -183 -202 -491 -214 -606 -13 -121 -7
-149 50 -221 36 -45 66 -69 117 -96 91 -48 193 -78 261 -78 72 0 176 54 211
108 13 21 44 60 69 87 l46 50 -7 -35 c-32 -162 -30 -385 4 -590 19 -111 60
-282 80 -335 17 -44 12 -51 -53 -80 -135 -60 -411 -239 -501 -324 -137 -131
-254 -374 -321 -671 -34 -149 -43 -242 -52 -520 -11 -336 -9 -559 6 -658 7
-46 10 -86 7 -89 -3 -3 -32 8 -65 26 -162 86 -290 107 -383 62 -70 -34 -98
-64 -98 -104 0 -66 74 -91 121 -41 48 52 128 68 205 40 22 -8 83 -35 138 -61
107 -52 124 -73 131 -159 4 -51 -11 -146 -24 -159 -7 -7 -36 -7 -88 2 -97 16
-190 -1 -303 -55 -84 -40 -120 -69 -161 -133 -34 -53 -36 -84 -9 -111 26 -26
45 -17 120 60 30 31 71 66 90 78 43 25 195 62 257 62 50 0 48 8 24 -85 -15
-56 -6 -97 45 -200 29 -61 65 -114 108 -160 53 -59 66 -79 75 -125 59 -280
245 -643 392 -762 54 -44 257 -190 311 -224 l39 -25 -35 -39 c-52 -58 -67
-166 -30 -217 57 -78 254 -134 401 -113 85 11 153 28 224 56 l46 17 34 -26
c19 -14 69 -42 112 -63 143 -68 327 -68 541 0 l71 22 65 -22 c57 -19 101 -23
365 -34 165 -6 404 -15 530 -20 156 -7 286 -6 405 1 l175 11 60 -35 c104 -61
159 -72 335 -70 111 1 185 8 260 23 58 11 143 23 189 27 65 5 89 11 104 26 20
20 22 20 81 3 115 -32 219 -48 288 -42 95 7 262 48 506 124 192 59 215 68 224
91 5 15 8 95 6 183 l-3 157 29 5 c35 7 368 174 444 222 66 43 166 144 248 253
80 107 207 346 249 470 18 53 43 124 55 157 l21 62 59 -5 c149 -14 374 134
447 294 23 51 25 64 20 142 -4 53 -16 116 -33 166 -51 151 -93 215 -176 261
-47 25 -63 29 -135 29 -73 0 -83 2 -83 18 0 10 -6 28 -14 40 -8 12 -17 45 -21
72 -12 94 -54 280 -74 331 -11 28 -18 60 -15 71 6 21 -45 163 -89 249 -14 27
-55 119 -91 204 -37 85 -91 196 -121 245 -29 50 -87 151 -127 225 -117 213
-196 305 -492 575 -146 133 -183 157 -416 276 -136 69 -410 142 -600 159 -626
58 -757 60 -1146 20 -56 -5 -127 -19 -159 -30 -62 -21 -95 -25 -95 -11 0 19
53 126 89 180 83 123 124 205 211 421 122 301 369 946 438 1145 l56 160 4 147
c5 183 -11 260 -72 352 -35 52 -52 66 -115 99 -66 33 -81 37 -145 36 -39 -1
-82 -3 -96 -6z m224 -136 c36 -46 46 -81 57 -180 18 -173 -10 -302 -136 -627
-21 -52 -86 -223 -145 -380 -131 -345 -276 -703 -318 -787 -69 -135 -243 -367
-369 -489 -40 -38 -73 -74 -73 -79 0 -5 -24 -34 -52 -64 -29 -29 -48 -51 -42
-47 25 13 144 33 144 24 0 -6 -9 -12 -20 -15 -27 -7 -25 -16 12 -59 45 -51 85
-65 181 -64 68 1 96 -4 165 -30 63 -23 100 -30 153 -30 l69 0 0 -31 c0 -53 22
-109 53 -135 23 -20 40 -24 88 -24 50 0 64 4 84 25 14 13 25 29 25 35 0 8 15
10 50 5 66 -9 100 11 100 58 0 37 32 107 56 120 8 5 20 5 27 -1 28 -21 47 -20
76 4 29 24 129 55 224 69 26 4 58 15 70 25 18 15 20 22 12 46 -13 37 -34 42
-187 43 l-127 1 -16 29 c-24 47 -73 71 -146 71 -52 1 -60 3 -45 12 20 11 211
7 501 -12 139 -9 311 -41 330 -62 7 -7 2 -9 -17 -4 -21 5 -30 2 -38 -14 -6
-12 -9 -28 -6 -38 11 -34 93 -101 157 -128 35 -15 71 -33 79 -40 37 -31 109
-53 195 -59 77 -6 93 -5 104 9 19 23 30 20 91 -20 65 -42 101 -40 141 6 l26
30 39 -26 c124 -84 391 -349 510 -508 34 -45 99 -151 143 -235 45 -84 97 -178
116 -207 51 -79 79 -139 110 -234 15 -47 56 -148 91 -225 109 -245 122 -324
150 -860 5 -115 -12 -313 -47 -534 -9 -60 -133 -378 -196 -506 -36 -73 -244
-343 -300 -390 -50 -42 -356 -209 -502 -275 -24 -10 -49 -114 -56 -232 l-7
-113 -162 -58 c-88 -31 -208 -69 -266 -83 -58 -13 -134 -32 -169 -41 -81 -20
-188 -14 -299 17 -84 24 -84 24 -78 53 13 62 140 223 260 327 86 75 106 110
70 124 -34 13 -283 -160 -362 -251 -79 -91 -104 -140 -99 -199 l3 -52 -65 -6
c-36 -4 -91 -13 -121 -21 -70 -18 -238 -35 -345 -35 -91 0 -145 14 -145 37 0
33 75 127 163 203 51 43 136 127 190 185 76 83 97 111 97 134 0 21 -6 32 -20
36 -32 10 -61 -4 -120 -59 -30 -29 -100 -88 -155 -132 -155 -126 -207 -177
-245 -241 l-35 -60 -175 -9 c-198 -10 -478 -8 -715 6 -88 6 -234 10 -325 10
l-165 1 29 24 c28 22 29 26 20 67 l-10 43 -45 -1 c-26 -1 -67 -13 -95 -27 -81
-40 -233 -86 -341 -102 -141 -21 -292 -20 -338 2 -44 21 -42 29 40 169 33 55
-2 120 -59 109 -30 -6 -61 -34 -99 -89 -22 -32 -157 -98 -257 -126 -108 -30
-227 -37 -268 -16 -89 46 -53 142 66 177 23 7 42 16 42 21 0 5 11 14 25 20 29
13 43 52 25 73 -8 10 -31 14 -78 13 -47 -1 -80 5 -112 19 -57 25 -303 200
-364 259 -69 65 -193 260 -244 383 -46 110 -86 235 -74 229 4 -2 34 -17 68
-35 85 -44 252 -109 359 -140 68 -19 116 -25 195 -27 97 -1 401 21 615 44 232
26 223 26 326 -13 52 -19 134 -52 184 -72 207 -83 490 -125 661 -96 122 21
275 72 394 131 106 53 124 66 206 153 92 96 218 274 312 442 75 134 71 130
164 156 119 33 264 33 331 0 26 -13 62 -40 78 -61 17 -21 54 -50 81 -64 47
-25 52 -25 74 -11 88 57 -93 224 -293 271 -50 12 -96 15 -176 11 -99 -5 -109
-4 -104 11 3 9 26 67 51 129 25 61 46 116 46 121 0 13 269 110 345 124 82 15
158 -1 211 -43 20 -16 42 -29 49 -29 7 0 18 -7 25 -16 20 -23 64 -14 68 15 7
45 -76 108 -206 158 -111 42 -245 33 -391 -29 -24 -10 -45 -17 -46 -16 -2 2 8
44 20 93 44 175 68 384 62 555 -5 181 -24 264 -91 406 -59 124 -189 356 -242
430 -62 88 -167 181 -312 277 -149 98 -207 126 -225 108 -19 -19 1 -39 144
-143 219 -158 261 -208 414 -481 144 -258 185 -389 185 -586 0 -165 -46 -475
-95 -637 -14 -49 -17 -52 -72 -72 -76 -28 -123 -58 -123 -77 0 -9 11 -27 26
-41 21 -22 31 -25 60 -19 34 6 35 5 29 -17 -4 -13 -35 -85 -68 -161 -51 -116
-66 -141 -92 -154 -46 -23 -65 -44 -65 -69 0 -13 7 -27 17 -32 14 -8 12 -17
-21 -76 -60 -107 -167 -256 -221 -309 -149 -145 -273 -228 -413 -277 -196 -69
-348 -86 -508 -55 -147 28 -179 37 -279 80 -161 69 -206 86 -272 100 -64 13
-98 12 -458 -24 -406 -40 -512 -38 -680 17 -117 38 -256 96 -303 126 -45 29
-92 72 -92 84 0 5 -25 39 -54 76 -63 76 -115 176 -123 234 -6 45 22 132 42
132 7 0 18 -7 25 -15 7 -8 17 -15 22 -15 6 0 24 -10 40 -22 30 -21 31 -21 44
-3 8 10 14 22 14 27 0 12 -47 51 -78 63 l-27 12 0 147 0 147 32 -3 c18 -1 35
1 39 4 4 4 -18 31 -48 60 l-55 53 -19 120 c-15 96 -19 174 -19 390 0 597 50
887 207 1205 53 107 72 135 137 200 85 85 307 233 473 316 92 46 98 47 116 31
25 -23 59 -21 72 3 9 16 5 34 -20 89 -64 147 -118 413 -127 626 -7 161 6 288
41 428 33 128 142 345 163 324 3 -4 -4 -48 -16 -99 -34 -151 -44 -259 -38
-448 7 -230 46 -435 115 -598 32 -78 147 -255 188 -293 46 -42 135 -99 154
-99 30 0 67 38 89 92 11 29 39 109 60 178 149 471 148 705 -5 1393 -42 190
-154 530 -185 563 -37 40 -72 32 -106 -23 -75 -122 -99 -163 -136 -233 -21
-41 -49 -86 -61 -100 -13 -14 -38 -52 -56 -85 -46 -84 -99 -150 -245 -305 -70
-74 -177 -193 -238 -263 -133 -155 -159 -171 -263 -165 -88 6 -165 45 -207
105 l-29 40 12 79 c14 90 26 129 105 344 96 259 211 461 368 648 93 110 282
253 381 288 78 28 413 17 522 -17 36 -11 149 -124 215 -215 147 -199 241 -563
269 -1031 20 -339 7 -545 -55 -863 -14 -69 -25 -142 -25 -162 0 -36 0 -37 -56
-48 -70 -15 -148 -59 -152 -87 -4 -26 41 -63 78 -63 15 0 52 9 84 20 31 10
103 27 159 36 110 18 112 18 305 -38 40 -11 45 -11 58 6 11 16 11 23 -1 47
-12 22 -15 78 -15 270 0 222 3 262 35 488 19 135 44 323 55 417 23 189 44 277
92 386 63 144 108 205 288 394 251 264 466 438 681 553 198 105 333 150 461
150 75 1 77 0 102 -32z m-2634 -907 c36 -139 43 -183 100 -557 30 -195 40
-292 40 -380 0 -115 -19 -282 -40 -367 -25 -93 -103 -342 -111 -350 -24 -26
-122 120 -164 243 -40 119 -75 291 -87 436 -19 230 17 505 101 764 16 52 28
98 25 103 -9 14 87 251 96 241 5 -4 23 -64 40 -133z m5588 -4035 c93 -28 144
-91 191 -234 11 -35 24 -92 27 -126 6 -54 3 -70 -18 -117 -63 -137 -256 -272
-348 -243 -16 5 -20 12 -16 28 35 126 86 507 86 639 0 77 -1 76 78 53z"/>
<path d="M4263 7204 c-18 -39 -64 -96 -152 -187 -198 -206 -285 -316 -442
-553 -186 -283 -271 -520 -351 -984 -28 -161 -33 -208 -33 -362 0 -174 0 -177
25 -203 22 -24 79 -55 100 -55 4 0 35 24 68 53 33 28 94 79 137 111 121 94
363 373 490 566 225 344 312 558 375 926 24 138 27 385 6 479 -28 125 -86 235
-125 235 -10 0 -24 7 -31 15 -22 27 -40 16 -67 -41z m93 -211 c14 -96 -3 -330
-36 -491 -62 -305 -130 -476 -287 -731 -112 -180 -205 -302 -387 -504 -69 -77
-208 -197 -227 -197 -15 0 -11 84 12 235 48 333 129 641 217 828 67 143 227
387 379 577 73 90 300 330 314 330 4 0 11 -21 15 -47z"/>
<path d="M1392 3562 c9 -32 -109 -108 -182 -117 -74 -8 -129 -43 -173 -107
-45 -66 -51 -91 -37 -151 16 -73 -6 -208 -44 -270 -37 -61 -38 -103 -4 -154
15 -21 30 -50 33 -66 9 -34 51 -70 108 -92 42 -16 45 -20 56 -70 10 -42 21
-62 53 -90 69 -63 134 -79 202 -51 38 16 91 77 106 122 9 26 25 38 88 69 61
30 97 57 169 130 50 51 112 104 138 120 46 27 75 70 75 114 0 11 9 22 20 26
37 12 70 63 70 111 0 36 -6 51 -34 81 -28 32 -32 44 -28 76 6 53 -44 153 -101
199 -59 49 -134 86 -187 93 -25 4 -74 13 -110 20 -36 8 -101 17 -144 21 -77 7
-79 6 -74 -14z m-42 -454 c25 -42 25 -59 -1 -92 -41 -52 -139 -18 -139 49 0
38 42 75 85 75 29 0 39 -6 55 -32z"/>
<path d="M3435 3567 c-70 -19 -103 -38 -155 -92 -25 -26 -69 -65 -98 -87 -53
-39 -60 -64 -16 -55 13 2 24 3 24 2 0 -1 -11 -35 -25 -75 -14 -40 -25 -95 -25
-122 0 -27 -7 -72 -16 -99 -14 -42 -15 -57 -5 -90 22 -72 101 -141 197 -169
l41 -12 11 -72 c14 -93 45 -226 59 -251 17 -30 62 -68 117 -100 40 -23 57 -27
100 -23 64 5 131 48 154 97 15 30 27 39 79 57 152 52 225 122 316 301 36 71
75 137 87 148 34 31 50 70 50 121 0 51 -28 107 -61 125 -16 8 -18 17 -14 42
11 59 -58 117 -138 117 -26 0 -42 10 -76 44 -24 25 -65 54 -92 65 -26 12 -60
36 -76 55 -49 59 -91 78 -175 75 -40 -1 -104 1 -143 4 -45 4 -88 2 -120 -6z
m125 -499 c45 -49 13 -128 -53 -128 -57 0 -90 57 -63 109 25 47 81 56 116 19z"/>
<path d="M1977 2743 c-11 -11 -8 -58 6 -74 6 -9 24 -23 39 -32 40 -25 66 -83
60 -135 -2 -25 1 -48 8 -57 13 -15 77 -20 95 -7 6 4 25 37 43 74 18 37 53 87
77 112 49 49 55 76 25 106 -35 35 -77 24 -142 -38 l-38 -36 -32 30 c-61 56
-119 80 -141 57z"/>
<path d="M1953 2079 c-7 -7 -13 -18 -13 -24 0 -13 311 -52 329 -41 20 13 12
46 -14 56 -14 5 -85 12 -157 16 -103 5 -136 3 -145 -7z"/>
</g>
</svg>
