<?xml version="1.0" standalone="no"?>
<!DOCTYPE svg PUBLIC "-//W3C//DTD SVG 20010904//EN"
 "http://www.w3.org/TR/2001/REC-SVG-20010904/DTD/svg10.dtd">
<svg version="1.0" xmlns="http://www.w3.org/2000/svg"
 width="944.000000pt" height="799.000000pt" viewBox="0 0 944.000000 799.000000"
 preserveAspectRatio="xMidYMid meet">

<g transform="translate(0.000000,799.000000) scale(0.100000,-0.100000)"
fill="#000000" stroke="none">
<path d="M5680 7783 c-183 -27 -445 -145 -647 -290 -230 -165 -630 -560 -718
-710 -107 -183 -142 -312 -185 -678 -16 -143 -39 -313 -50 -378 -16 -97 -20
-165 -20 -374 l0 -255 -27 5 c-16 4 -57 12 -93 18 -36 7 -66 13 -67 14 -1 0 6
41 17 90 54 260 65 377 64 675 0 308 -12 459 -50 670 -63 347 -145 538 -318
740 -172 202 -266 242 -606 257 -157 6 -196 0 -300 -52 -50 -25 -208 -137
-282 -198 -104 -87 -252 -293 -355 -496 -93 -183 -202 -491 -214 -606 -13
-121 -7 -149 50 -221 36 -45 66 -69 117 -96 91 -48 193 -78 261 -78 72 0 177
54 211 108 26 42 102 125 108 119 2 -2 -1 -30 -8 -63 -18 -93 -15 -390 6 -514
18 -107 67 -314 86 -364 17 -45 13 -52 -52 -81 -136 -60 -412 -239 -502 -324
-137 -131 -254 -373 -321 -670 -13 -57 -30 -108 -37 -112 -13 -9 -218 -13
-218 -5 0 3 25 39 55 82 128 178 235 387 235 460 0 52 -17 102 -39 113 -9 5
-128 5 -266 0 l-250 -8 -22 -26 c-21 -24 -22 -28 -8 -61 8 -19 19 -61 26 -94
14 -70 58 -140 89 -140 24 0 26 23 6 71 -7 19 -16 61 -20 95 l-7 61 163 -5
c90 -2 165 -6 167 -8 15 -14 -138 -271 -246 -413 -111 -148 -124 -171 -118
-205 3 -16 10 -35 16 -43 22 -26 118 -44 271 -51 l153 -7 -5 -235 c-8 -357 -5
-556 9 -648 7 -46 10 -86 7 -89 -3 -3 -32 8 -65 26 -162 86 -290 107 -383 62
-70 -34 -98 -64 -98 -104 0 -72 68 -89 131 -33 41 38 88 51 149 43 36 -5 216
-82 267 -114 26 -17 53 -91 53 -145 0 -55 -20 -129 -37 -135 -8 -3 -47 0 -86
7 -91 15 -186 -3 -297 -56 -84 -40 -120 -69 -161 -133 -34 -53 -36 -84 -9
-111 26 -26 45 -17 120 60 30 31 71 66 90 78 43 25 195 62 257 62 50 0 48 8
24 -85 -15 -56 -6 -97 45 -200 28 -59 65 -114 107 -160 61 -68 64 -74 89 -175
53 -211 178 -477 292 -622 55 -70 241 -216 409 -322 l28 -17 -35 -39 c-52 -58
-67 -167 -30 -217 57 -78 254 -134 401 -113 85 11 153 28 224 56 l46 17 34
-26 c19 -14 69 -42 112 -63 143 -68 327 -68 541 0 l71 22 65 -22 c57 -19 101
-23 365 -34 165 -6 404 -15 530 -20 156 -7 286 -6 405 1 l175 11 60 -35 c104
-61 159 -72 335 -70 111 1 185 8 260 23 58 11 143 23 189 27 64 5 89 11 104
26 19 19 20 19 125 -9 207 -54 321 -40 750 94 192 59 215 68 224 91 5 15 8 95
6 183 l-3 157 29 5 c35 7 371 176 441 221 90 59 205 182 292 312 66 98 174
311 208 412 18 53 43 124 55 157 l21 62 59 -5 c149 -14 374 134 447 294 23 51
25 64 20 142 -4 53 -16 116 -33 166 -51 151 -93 215 -176 261 -47 25 -63 29
-135 29 l-81 0 -12 100 c-6 55 -18 136 -26 180 -18 91 -109 353 -161 465 -19
41 -68 150 -108 242 -40 93 -93 201 -118 240 -24 40 -80 138 -124 218 -122
224 -198 313 -497 585 -146 133 -183 157 -416 276 -136 69 -410 142 -600 159
-626 58 -757 60 -1146 20 -56 -5 -127 -19 -159 -30 -62 -21 -95 -25 -95 -11 0
19 53 126 89 180 83 123 124 205 211 421 122 301 369 946 438 1145 l56 160 4
147 c5 183 -11 260 -72 352 -35 52 -52 66 -115 99 -66 33 -81 37 -145 36 -39
-1 -82 -3 -96 -6z m211 -124 c12 -12 31 -42 43 -68 19 -41 21 -63 21 -211 0
-188 0 -186 -102 -455 -36 -93 -114 -298 -173 -455 -145 -381 -278 -710 -325
-801 -84 -165 -224 -341 -499 -628 -28 -29 -43 -51 -33 -47 10 3 46 13 80 21
34 8 91 24 127 35 114 37 164 48 296 69 71 12 145 24 164 27 19 3 131 12 249
19 181 11 260 11 493 -1 246 -12 298 -18 451 -49 284 -59 443 -111 641 -213
152 -77 246 -151 429 -337 197 -199 273 -299 376 -494 45 -84 97 -178 116
-207 51 -80 79 -140 110 -234 15 -47 57 -155 95 -240 80 -183 103 -279 125
-525 31 -334 26 -495 -26 -849 -9 -64 -128 -373 -196 -511 -35 -69 -216 -309
-282 -373 -38 -35 -98 -75 -191 -123 -184 -98 -290 -152 -320 -164 -34 -14
-56 -93 -65 -235 l-7 -115 -162 -58 c-88 -31 -237 -76 -331 -98 -196 -47 -260
-49 -403 -9 -84 24 -84 24 -78 53 12 62 145 228 265 332 81 70 101 105 65 119
-19 7 -32 0 -159 -83 -190 -124 -334 -303 -306 -382 6 -18 10 -33 9 -34 -2 -1
-41 -7 -88 -13 -47 -6 -119 -18 -160 -27 -109 -21 -346 -31 -393 -16 -22 8
-37 19 -37 28 0 33 75 126 163 203 51 43 136 127 190 185 76 83 97 111 97 134
0 21 -6 32 -20 36 -32 10 -61 -4 -120 -59 -30 -29 -100 -88 -155 -132 -155
-126 -207 -177 -245 -241 l-35 -60 -180 -9 c-203 -10 -489 -7 -705 6 -80 6
-226 10 -325 10 l-180 0 33 22 c30 19 33 25 29 58 -2 20 -8 43 -12 50 -10 17
-83 6 -133 -19 -21 -11 -83 -35 -138 -54 -240 -84 -601 -91 -578 -13 6 20 29
64 69 132 33 55 -2 120 -59 109 -30 -6 -61 -34 -99 -89 -22 -32 -157 -97 -258
-126 -108 -30 -226 -37 -267 -16 -88 45 -51 142 66 177 23 7 42 16 42 21 0 5
11 14 25 20 29 13 43 52 25 73 -8 10 -31 14 -78 13 -47 -1 -80 5 -112 19 -57
25 -303 200 -364 259 -69 65 -193 260 -244 383 -46 110 -86 235 -74 229 4 -2
34 -17 68 -35 150 -78 382 -155 506 -168 64 -6 266 7 608 41 307 30 276 31
381 -9 52 -19 134 -52 184 -72 152 -61 303 -94 467 -101 95 -5 163 -3 203 5
127 25 274 75 385 131 104 52 123 66 205 151 92 96 217 272 313 444 75 134 71
130 164 156 118 33 263 33 331 0 26 -13 62 -40 78 -61 17 -21 54 -50 81 -64
47 -25 52 -25 74 -11 88 58 -91 223 -293 271 -50 12 -96 15 -176 11 -99 -5
-109 -4 -104 11 3 9 26 67 51 129 25 61 46 116 46 121 0 13 269 110 345 124
79 14 160 -1 205 -38 16 -14 49 -36 74 -49 40 -21 46 -22 65 -9 28 20 27 27
-9 68 -54 61 -191 126 -295 140 -59 8 -172 -13 -271 -50 -59 -22 -66 -23 -59
-7 16 42 46 188 65 318 22 154 26 368 10 475 -18 114 -81 258 -217 500 -125
220 -202 306 -396 438 -169 116 -257 153 -257 108 0 -17 18 -32 198 -164 171
-126 215 -178 346 -410 157 -276 194 -381 203 -567 7 -158 -16 -361 -68 -590
-34 -153 -33 -150 -97 -174 -75 -27 -122 -57 -122 -76 0 -9 11 -27 26 -41 21
-22 31 -25 60 -19 34 6 35 5 29 -17 -4 -13 -35 -85 -68 -161 -51 -116 -66
-141 -92 -154 -46 -23 -65 -44 -65 -69 0 -13 7 -27 17 -32 14 -8 12 -17 -21
-76 -102 -182 -208 -309 -361 -431 -119 -95 -168 -122 -283 -160 -214 -69
-326 -79 -518 -45 -129 22 -161 32 -329 105 -183 79 -235 87 -415 70 -629 -61
-724 -65 -847 -30 -136 39 -185 56 -263 91 -130 57 -175 89 -223 161 -12 18
-44 62 -71 98 -54 74 -95 164 -96 210 0 39 29 115 45 115 7 0 18 -7 25 -15 7
-8 18 -15 24 -15 6 0 22 -9 36 -20 31 -25 37 -25 50 0 16 29 -4 58 -53 79
l-42 18 0 147 c0 126 2 145 15 140 35 -15 55 -9 58 17 3 22 -5 32 -47 58 -57
37 -55 32 -77 166 -25 151 -24 796 2 922 3 16 23 32 64 53 64 32 80 52 80 99
0 40 -34 71 -77 71 -20 0 -33 5 -33 13 0 27 51 202 85 289 102 264 185 363
432 521 84 54 195 118 248 144 89 43 96 45 113 29 23 -20 56 -21 73 0 10 13
10 21 -1 47 -70 168 -122 390 -142 605 -21 241 17 494 103 672 40 84 87 156
95 147 3 -3 -7 -56 -22 -118 -23 -98 -28 -142 -32 -312 -5 -224 5 -330 49
-509 41 -169 75 -249 163 -381 68 -104 85 -122 151 -167 131 -89 150 -75 229
166 136 412 158 647 97 1014 -55 329 -108 552 -183 775 -116 344 -130 343
-321 -15 -22 -41 -50 -86 -63 -100 -12 -14 -41 -59 -65 -100 -54 -97 -94 -147
-243 -305 -68 -71 -176 -190 -240 -263 -137 -154 -170 -176 -257 -170 -84 6
-187 60 -215 113 -20 38 -21 44 -8 126 16 108 145 464 216 599 65 123 162 267
252 376 76 91 216 203 331 266 l60 33 190 0 c248 0 318 -12 379 -67 64 -56
170 -190 215 -273 134 -243 213 -681 215 -1195 1 -208 -18 -388 -60 -585 -9
-38 -19 -101 -22 -139 l-7 -69 -60 -17 c-75 -20 -145 -64 -145 -89 0 -47 60
-71 129 -51 201 56 323 63 437 25 87 -29 107 -31 125 -9 11 14 10 21 -4 46
-15 26 -17 61 -17 256 0 137 6 267 14 327 27 196 65 482 82 620 25 213 85 390
175 522 29 43 236 270 344 378 69 69 296 253 385 312 92 62 298 167 395 202
65 23 150 38 233 40 41 1 57 -4 73 -20z m-2622 -914 c35 -137 46 -199 101
-558 67 -434 56 -588 -72 -990 l-41 -128 -29 28 c-172 163 -270 693 -202 1093
17 98 65 294 89 360 9 25 18 61 20 80 5 47 86 254 95 243 4 -4 22 -62 39 -128z
m5589 -4040 c93 -28 144 -91 191 -234 11 -35 24 -92 27 -126 6 -54 3 -70 -18
-117 -34 -73 -128 -173 -198 -208 -97 -49 -178 -52 -166 -7 35 126 86 507 86
639 0 77 -1 76 78 53z"/>
<path d="M5344 7152 c-90 -48 -381 -368 -540 -592 -269 -381 -362 -617 -450
-1136 -29 -174 -34 -229 -34 -364 0 -156 0 -159 26 -190 23 -26 80 -60 104
-60 4 0 35 24 68 53 33 28 88 72 122 97 115 83 370 373 493 558 236 358 326
576 392 957 26 145 23 393 -4 499 -25 96 -80 200 -107 203 -10 1 -42 -10 -70
-25z m52 -209 c15 -102 -3 -330 -40 -505 -66 -312 -149 -511 -328 -784 -136
-208 -357 -469 -488 -576 -36 -29 -66 -56 -68 -60 -2 -5 -8 -8 -13 -8 -34 0
37 467 115 752 44 159 103 309 168 423 70 125 210 329 313 458 85 108 310 347
326 347 4 0 11 -21 15 -47z"/>
<path d="M2801 3820 c-48 -12 -84 -42 -95 -79 -14 -48 8 -64 31 -23 31 54 102
71 218 53 39 -6 79 -12 90 -13 35 -5 30 31 -7 46 -41 17 -192 28 -237 16z"/>
<path d="M3915 3776 c-23 -7 -40 -18 -40 -26 0 -13 20 -14 125 -12 l125 3 55
-35 c49 -31 57 -33 70 -20 13 14 12 18 -15 40 -61 50 -105 64 -196 63 -46 0
-102 -6 -124 -13z"/>
<path d="M2178 3279 c-26 -15 -22 -38 18 -105 67 -113 135 -164 259 -198 205
-56 357 -26 447 88 64 80 71 94 64 121 -10 40 -48 33 -87 -16 -43 -55 -121
-90 -210 -97 -80 -5 -135 7 -244 55 -97 42 -138 72 -171 124 -25 39 -45 47
-76 28z"/>
<path d="M4593 3184 c-6 -3 -30 -34 -53 -69 -23 -35 -53 -71 -66 -80 -28 -18
-175 -45 -244 -44 -25 0 -62 6 -83 13 -52 19 -145 93 -174 139 -18 28 -30 37
-46 35 -34 -5 -31 -37 10 -107 89 -149 150 -188 311 -198 69 -4 116 -2 149 7
151 41 253 151 253 273 0 30 -25 44 -57 31z"/>
<path d="M3017 2693 c-23 -23 11 -103 43 -103 6 0 23 -20 39 -45 24 -37 28
-53 23 -90 -3 -28 0 -50 8 -60 13 -15 77 -20 95 -7 6 4 25 37 43 74 18 37 53
87 77 112 49 49 55 76 25 106 -35 35 -77 24 -142 -38 l-38 -36 -32 30 c-61 56
-119 80 -141 57z"/>
<path d="M3055 2138 c-50 -39 -68 -113 -41 -167 23 -43 123 -79 170 -61 57 21
85 122 50 176 -21 32 -93 74 -126 74 -14 0 -38 -10 -53 -22z m93 -88 c26 -25
16 -66 -15 -63 -65 7 -96 48 -55 72 26 16 46 13 70 -9z"/>
<path d="M668 4880 c-150 -9 -152 -11 -144 -155 6 -118 20 -151 50 -125 11 9
16 31 16 74 0 102 3 106 71 106 33 0 59 -3 59 -7 0 -5 -27 -59 -60 -122 -33
-63 -60 -121 -60 -128 0 -7 9 -22 20 -33 18 -18 33 -20 148 -19 156 0 196 11
200 56 5 47 -25 63 -120 63 -43 0 -78 3 -78 8 0 4 23 49 50 101 54 101 62 147
32 174 -10 10 -32 16 -48 15 -16 0 -77 -4 -136 -8z"/>
</g>
</svg>
